<?xml version="1.0" encoding="utf-8"?>
<!-- Generator: Adobe Illustrator 24.1.2, SVG Export Plug-In . SVG Version: 6.00 Build 0)  -->
<svg version="1.1" xmlns="http://www.w3.org/2000/svg" xmlns:xlink="http://www.w3.org/1999/xlink" x="0px" y="0px"
	 viewBox="0 0 322.57 322.57" style="enable-background:new 0 0 322.57 322.57;" xml:space="preserve">
<style type="text/css">
	.st0{fill-rule:evenodd;clip-rule:evenodd;fill:#328070;}
	.st1{fill-rule:evenodd;clip-rule:evenodd;fill:#1E5449;}
	.st2{fill-rule:evenodd;clip-rule:evenodd;fill:#F0FFFC;}
	.st3{fill:#1E5449;}
</style>
<g id="Background">
</g>
<g id="Objects">
	<g>
		<path class="st0" d="M322.57,36.11v250.36c0,19.86-16.25,36.11-36.11,36.11H36.11C16.25,322.57,0,306.33,0,286.47V36.11
			C0,16.25,16.25,0,36.11,0h250.36C306.33,0,322.57,16.25,322.57,36.11z"/>
		<path class="st1" d="M76.4,156.59l10.41-67.22L233.1,62.19l89.47,89.47v134.81c0,20.35-17.03,36.11-36.11,36.11H106.45
			l-66.91-66.91l31.93-5.89l-14.06-12.23l22.43-4.41l-20.95-20.4l16.35-52.72L76.4,156.59z"/>
		<path class="st2" d="M91.42,197.6c3.66,1.38,6.26,4.91,6.26,9.05c0,5.34-4.33,9.66-9.66,9.66c-3.33,0-6.27-1.69-8.01-4.25
			c-1.27,0.62-2.7,0.96-4.21,0.96c-1.06,0-2.09-0.17-3.04-0.49c-1.76,1.87-4.26,3.04-7.04,3.04c-5.34,0-9.66-4.33-9.66-9.66
			c0-2.1,0.67-4.05,1.81-5.63c-0.12-0.62-0.19-1.25-0.19-1.91c0-2.45,0.91-4.68,2.41-6.38c-4.1-1.12-7.12-4.87-7.12-9.32
			c0-5.24,4.17-9.5,9.37-9.66c-0.64-1.29-1.01-2.76-1.01-4.3c0-5.34,4.33-9.66,9.66-9.66c5.31,0,9.62,4.28,9.66,9.59
			c0.98-0.34,2.04-0.52,3.14-0.52c5.34,0,9.66,4.33,9.66,9.66c0,2.76-1.15,5.24-3.01,7c1.82,1.76,2.95,4.22,2.95,6.95
			C93.41,193.94,92.67,195.97,91.42,197.6z"/>
		<path class="st2" d="M242.54,212.53c-1.76,1.87-4.26,3.04-7.04,3.04c-5.34,0-9.66-4.33-9.66-9.66c0-1.82,0.51-3.53,1.39-4.99
			c-1.19-1.61-1.9-3.6-1.9-5.75c0-3.08,1.45-5.83,3.69-7.6c-2.65-1.72-4.41-4.71-4.41-8.11c0-5.34,4.33-9.66,9.66-9.66
			c0.5,0,0.98,0.04,1.46,0.11c1.17-4.03,4.88-6.97,9.28-6.97c5,0,9.11,3.8,9.61,8.66c4.18,1.06,7.27,4.85,7.27,9.36
			c0,1.6-0.39,3.11-1.08,4.43c1.47,1.7,2.36,3.91,2.36,6.33c0,2.86-1.24,5.43-3.22,7.2c3.03,1.63,5.09,4.83,5.09,8.52
			c0,5.34-4.33,9.66-9.66,9.66c-3.33,0-6.28-1.69-8.01-4.26c-0.58,0.11-1.19,0.17-1.8,0.17
			C244.52,213.02,243.5,212.85,242.54,212.53z"/>
		<path class="st2" d="M253.73,223.03l0.55-2.37c-1.83-0.15-3.55-0.68-5.09-1.5c-1.25-0.67-2.39-1.53-3.36-2.55
			c-0.08,0-0.16,0-0.24,0c-0.65,0-1.34-0.06-2.05-0.17c-0.85,0.64-1.78,1.19-2.78,1.62c-0.98,0.42-2,0.73-3.06,0.91l0.93,4.04
			H253.73z"/>
		<path class="st2" d="M83.95,223.03l0.81-3.52c-1.04-0.26-2.03-0.65-2.96-1.14c-1.07-0.57-2.05-1.28-2.92-2.12l-0.12,0.03l0,0
			c-0.98,0.22-1.97,0.34-2.96,0.34c-0.65,0-1.34-0.06-2.05-0.17c-0.85,0.64-1.78,1.19-2.78,1.62c-0.98,0.42-2,0.73-3.06,0.91
			l0.93,4.04H83.95z"/>
		<rect x="57.41" y="226.63" class="st2" width="207.75" height="10.92"/>
		<rect x="39.54" y="241.15" class="st2" width="243.49" height="14.52"/>
		<path class="st2" d="M218.45,55.02c15.82,3.57,27.72,17.78,27.72,34.63v69.74c-0.38-0.03-0.76-0.05-1.15-0.05
			c-2.97,0-5.72,0.99-7.95,2.66c-1.5,1.13-2.76,2.57-3.67,4.23c-3.1,0.2-5.9,1.47-8.06,3.43h-6.9v-4.75h12.58V143.6h-12.58v-7.69
			h12.58V114.6h-12.58V55.02L218.45,55.02z M218.45,190.97h3.97c-0.45,1.33-0.69,2.74-0.69,4.2c0,1.45,0.23,2.84,0.67,4.15
			c0.2,0.62,0.45,1.21,0.75,1.79c-0.16,0.4-0.29,0.82-0.41,1.24c-0.32,1.15-0.49,2.34-0.49,3.55c0,3.66,1.49,6.98,3.88,9.38
			c2.35,2.35,5.58,3.82,9.15,3.88l0.89,3.86h-17.71V190.97z M180.34,54.16h30.34c2.67,0,5.27,0.3,7.77,0.86v59.58h-12.58v21.31
			h12.58v7.69h-12.58v21.31h12.58v4.75h-12.58v21.31h12.58v32.06h-38.11v-5.33h14.45v-48.03h-14.45v-4.75h12.58V143.6h-12.58v-7.69
			h12.58V114.6h-12.58V54.16z M161.29,54.16h19.06v60.44h-12.58v21.31h12.58v7.69h-12.58v21.31h12.58v4.75h-19.06V54.16
			L161.29,54.16z M180.34,223.03h-19.06v-5.33h19.06V223.03z M142.23,54.16h19.05v115.51h-19.05v-4.75h12.58V143.6h-12.58v-7.69
			h12.58V114.6h-12.58V54.16L142.23,54.16z M161.29,223.03h-19.05v-5.33h19.05V223.03z M111.89,54.16h30.34v60.44h-12.58v21.31
			h12.58v7.69h-12.58v21.31h12.58v4.75h-14.46v48.03h14.46v5.33h-38.11v-32.06h12.58v-21.31h-12.58v-4.75h12.58V143.6h-12.58v-7.69
			h12.58V114.6h-12.58V55.02C106.63,54.46,109.23,54.16,111.89,54.16z M104.12,223.03H86.41l0.73-3.15
			c0.29,0.02,0.59,0.03,0.89,0.03c3.66,0,6.98-1.49,9.38-3.89c2.4-2.4,3.89-5.72,3.89-9.38c0-2.79-0.87-5.38-2.36-7.53
			c-0.75-1.09-1.67-2.06-2.71-2.88c0.03-0.08,0.06-0.17,0.09-0.25c0.46-1.35,0.71-2.78,0.71-4.25c0-0.25-0.01-0.5-0.02-0.76h7.13
			V223.03L104.12,223.03z M104.12,169.66H94.3c-0.35-0.45-0.72-0.87-1.12-1.27c-2.4-2.4-5.72-3.88-9.38-3.88l-0.23,0
			c-0.66-1.99-1.78-3.77-3.23-5.21c-1.13-1.13-2.47-2.05-3.94-2.71V89.65c0-16.85,11.91-31.06,27.73-34.63v59.58H91.54v21.31h12.58
			v7.69H91.54v21.31h12.58V169.66z"/>
		<path class="st3" d="M144.99,106.13v-3.56h0.02c1.66,0,3.03-0.6,4.1-1.8c1.06-1.2,1.6-2.99,1.6-5.39c0-2.37-0.52-4.13-1.55-5.3
			c-1.04-1.16-2.42-1.75-4.14-1.75h-0.02v-3.57c3.04,0,5.47,0.95,7.29,2.83c1.83,1.89,2.74,4.51,2.74,7.88
			c0,3.34-0.91,5.95-2.72,7.83c-1.81,1.88-4.24,2.82-7.27,2.82H144.99L144.99,106.13z M162.93,105.78V88.61h-6.13v-3.5h16.42v3.5
			h-6.12v17.17H162.93L162.93,105.78z M175.91,105.78V85.11h15.32v3.5h-11.15v4.58h10.38v3.48h-10.38v5.63h11.54v3.48H175.91
			L175.91,105.78z M195.28,105.78v-20.5h4.17v17.02h10.38v3.48H195.28z M114.98,105.78V85.11h4.18v8.13h8.18v-8.13h4.17v20.67h-4.17
			v-9.04h-8.18v9.04H114.98L114.98,105.78z M144.99,84.76v3.57c-1.71,0.01-3.09,0.6-4.14,1.77c-1.05,1.18-1.58,2.96-1.58,5.34
			c0,2.34,0.54,4.11,1.62,5.32c1.08,1.2,2.44,1.8,4.1,1.81v3.56c-3.06-0.01-5.49-0.95-7.29-2.81c-1.81-1.88-2.72-4.46-2.72-7.75
			c0-2.11,0.31-3.87,0.94-5.3c0.47-1.05,1.11-2,1.92-2.83c0.81-0.83,1.7-1.45,2.67-1.86c1.29-0.55,2.77-0.82,4.46-0.82H144.99z"/>
		<g>
			<polygon class="st1" points="161.19,64.51 163.01,70.17 168.96,70.16 164.14,73.65 165.99,79.29 161.19,75.79 156.39,79.29 
				158.23,73.65 153.42,70.16 159.36,70.17 			"/>
			<g>
				<polygon class="st1" points="177.38,66.58 178.95,71.45 184.06,71.44 179.92,74.43 181.51,79.29 177.38,76.28 173.25,79.29 
					174.84,74.43 170.69,71.44 175.81,71.45 				"/>
				<polygon class="st1" points="191.65,68.26 193.01,72.49 197.45,72.48 193.86,75.08 195.24,79.29 191.65,76.68 188.07,79.29 
					189.45,75.08 185.85,72.48 190.29,72.49 				"/>
				<polygon class="st1" points="145,66.58 143.43,71.45 138.31,71.44 142.46,74.43 140.87,79.29 145,76.28 149.13,79.29 
					147.54,74.43 151.68,71.44 146.57,71.45 				"/>
				<polygon class="st1" points="130.72,68.26 129.36,72.49 124.93,72.48 128.52,75.08 127.14,79.29 130.72,76.68 134.31,79.29 
					132.93,75.08 136.52,72.48 132.09,72.49 				"/>
			</g>
		</g>
	</g>
</g>
</svg>
