<?xml version="1.0" encoding="utf-8"?>
<!-- Generator: Adobe Illustrator 24.1.2, SVG Export Plug-In . SVG Version: 6.00 Build 0)  -->
<svg version="1.1" id="Capa_1" xmlns="http://www.w3.org/2000/svg" xmlns:xlink="http://www.w3.org/1999/xlink" x="0px" y="0px"
	 viewBox="0 0 50 50" style="enable-background:new 0 0 50 50;" xml:space="preserve">
<style type="text/css">
	.st0{fill-rule:evenodd;clip-rule:evenodd;fill:#328070;}
	.st1{fill-rule:evenodd;clip-rule:evenodd;fill:#1E5449;}
	.st2{fill-rule:evenodd;clip-rule:evenodd;fill:#F0FFFC;}
	.st3{fill:#1E5449;}
</style>
<g id="Objects">
	<g>
		<path class="st0" d="M50,5.6V44.4c0,3.08-2.52,5.6-5.6,5.6H5.6C2.52,50,0,47.48,0,44.4V5.6C0,2.52,2.52,0,5.6,0H44.4
			C47.48,0,50,2.52,50,5.6z"/>
		<path class="st1" d="M11.84,24.27l1.61-10.42l22.67-4.21L50,23.51v20.9c0,3.15-2.64,5.6-5.6,5.6H16.5L6.13,39.63l4.95-0.91
			l-2.18-1.9l3.48-0.68l-3.25-3.16l2.53-8.17L11.84,24.27z"/>
		<path class="st2" d="M14.17,30.63c0.57,0.21,0.97,0.76,0.97,1.4c0,0.83-0.67,1.5-1.5,1.5c-0.52,0-0.97-0.26-1.24-0.66
			c-0.2,0.1-0.42,0.15-0.65,0.15c-0.16,0-0.32-0.03-0.47-0.08c-0.27,0.29-0.66,0.47-1.09,0.47c-0.83,0-1.5-0.67-1.5-1.5
			c0-0.33,0.1-0.63,0.28-0.87c-0.02-0.1-0.03-0.19-0.03-0.3c0-0.38,0.14-0.73,0.37-0.99c-0.64-0.17-1.1-0.75-1.1-1.44
			c0-0.81,0.65-1.47,1.45-1.5c-0.1-0.2-0.16-0.43-0.16-0.67c0-0.83,0.67-1.5,1.5-1.5c0.82,0,1.49,0.66,1.5,1.49
			c0.15-0.05,0.32-0.08,0.49-0.08c0.83,0,1.5,0.67,1.5,1.5c0,0.43-0.18,0.81-0.47,1.09c0.28,0.27,0.46,0.65,0.46,1.08
			C14.48,30.06,14.36,30.38,14.17,30.63z"/>
		<path class="st2" d="M37.59,32.94c-0.27,0.29-0.66,0.47-1.09,0.47c-0.83,0-1.5-0.67-1.5-1.5c0-0.28,0.08-0.55,0.22-0.77
			c-0.18-0.25-0.29-0.56-0.29-0.89c0-0.48,0.22-0.9,0.57-1.18c-0.41-0.27-0.68-0.73-0.68-1.26c0-0.83,0.67-1.5,1.5-1.5
			c0.08,0,0.15,0.01,0.23,0.02c0.18-0.62,0.76-1.08,1.44-1.08c0.78,0,1.41,0.59,1.49,1.34c0.65,0.16,1.13,0.75,1.13,1.45
			c0,0.25-0.06,0.48-0.17,0.69c0.23,0.26,0.37,0.61,0.37,0.98c0,0.44-0.19,0.84-0.5,1.12c0.47,0.25,0.79,0.75,0.79,1.32
			c0,0.83-0.67,1.5-1.5,1.5c-0.52,0-0.97-0.26-1.24-0.66c-0.09,0.02-0.18,0.03-0.28,0.03C37.9,33.02,37.74,32.99,37.59,32.94z"/>
		<path class="st2" d="M39.33,34.57l0.09-0.37c-0.28-0.02-0.55-0.11-0.79-0.23c-0.19-0.1-0.37-0.24-0.52-0.4c-0.01,0-0.02,0-0.04,0
			c-0.1,0-0.21-0.01-0.32-0.03c-0.13,0.1-0.28,0.18-0.43,0.25c-0.15,0.07-0.31,0.11-0.47,0.14l0.14,0.63L39.33,34.57L39.33,34.57z"
			/>
		<path class="st2" d="M13.01,34.57l0.13-0.55c-0.16-0.04-0.31-0.1-0.46-0.18c-0.17-0.09-0.32-0.2-0.45-0.33l-0.02,0l0,0
			c-0.15,0.03-0.31,0.05-0.46,0.05c-0.1,0-0.21-0.01-0.32-0.03c-0.13,0.1-0.28,0.18-0.43,0.25c-0.15,0.07-0.31,0.11-0.47,0.14
			l0.14,0.63L13.01,34.57L13.01,34.57z"/>
		<rect x="8.9" y="35.13" class="st2" width="32.2" height="1.69"/>
		<rect x="6.13" y="37.38" class="st2" width="37.74" height="2.25"/>
		<path class="st2" d="M33.86,8.53c2.45,0.55,4.3,2.76,4.3,5.37v10.81c-0.06,0-0.12-0.01-0.18-0.01c-0.46,0-0.89,0.15-1.23,0.41
			c-0.23,0.18-0.43,0.4-0.57,0.66c-0.48,0.03-0.91,0.23-1.25,0.53h-1.07v-0.74h1.95v-3.3h-1.95v-1.19h1.95v-3.3h-1.95L33.86,8.53
			L33.86,8.53z M33.86,29.6h0.62c-0.07,0.21-0.11,0.42-0.11,0.65c0,0.22,0.04,0.44,0.1,0.64c0.03,0.1,0.07,0.19,0.12,0.28
			c-0.02,0.06-0.04,0.13-0.06,0.19c-0.05,0.18-0.08,0.36-0.08,0.55c0,0.57,0.23,1.08,0.6,1.45c0.36,0.36,0.86,0.59,1.42,0.6
			l0.14,0.6h-2.75L33.86,29.6L33.86,29.6z M27.95,8.39h4.7c0.41,0,0.82,0.05,1.2,0.13v9.23h-1.95v3.3h1.95v1.19h-1.95v3.3h1.95v0.74
			h-1.95v3.3h1.95v4.97h-5.91v-0.83h2.24V26.3h-2.24v-0.74h1.95v-3.3h-1.95v-1.19h1.95v-3.3h-1.95V8.39z M25,8.39h2.95v9.37h-1.95
			v3.3h1.95v1.19h-1.95v3.3h1.95v0.74H25V8.39L25,8.39z M27.95,34.57H25v-0.83h2.95V34.57z M22.05,8.39H25v17.9h-2.95v-0.74H24v-3.3
			h-1.95v-1.19H24v-3.3h-1.95V8.39L22.05,8.39z M25,34.57h-2.95v-0.83H25V34.57z M17.34,8.39h4.7v9.37H20.1v3.3h1.95v1.19H20.1v3.3
			h1.95v0.74h-2.24v7.44h2.24v0.83h-5.91V29.6h1.95v-3.3h-1.95v-0.74h1.95v-3.3h-1.95v-1.19h1.95v-3.3h-1.95V8.53
			C16.53,8.44,16.93,8.39,17.34,8.39z M16.14,34.57h-2.75l0.11-0.49c0.04,0,0.09,0,0.14,0c0.57,0,1.08-0.23,1.45-0.6
			c0.37-0.37,0.6-0.89,0.6-1.45c0-0.43-0.13-0.83-0.37-1.17c-0.12-0.17-0.26-0.32-0.42-0.45c0-0.01,0.01-0.03,0.01-0.04
			c0.07-0.21,0.11-0.43,0.11-0.66c0-0.04,0-0.08,0-0.12h1.11L16.14,34.57L16.14,34.57z M16.14,26.3h-1.52
			c-0.05-0.07-0.11-0.13-0.17-0.2c-0.37-0.37-0.89-0.6-1.45-0.6h-0.04c-0.1-0.31-0.28-0.58-0.5-0.81c-0.18-0.18-0.38-0.32-0.61-0.42
			V13.9c0-2.61,1.85-4.81,4.3-5.37v9.23h-1.95v3.3h1.95v1.19h-1.95v3.3h1.95V26.3z"/>
		<path class="st3" d="M22.47,16.45V15.9h0c0.26,0,0.47-0.09,0.64-0.28c0.16-0.19,0.25-0.46,0.25-0.84c0-0.37-0.08-0.64-0.24-0.82
			c-0.16-0.18-0.38-0.27-0.64-0.27h0v-0.55c0.47,0,0.85,0.15,1.13,0.44c0.28,0.29,0.42,0.7,0.42,1.22c0,0.52-0.14,0.92-0.42,1.21
			S22.95,16.45,22.47,16.45L22.47,16.45L22.47,16.45z M25.25,16.4v-2.66H24.3v-0.54h2.55v0.54H25.9v2.66H25.25L25.25,16.4z
			 M27.27,16.4v-3.2h2.37v0.54h-1.73v0.71h1.61v0.54h-1.61v0.87h1.79v0.54L27.27,16.4L27.27,16.4z M30.27,16.4v-3.18h0.65v2.64h1.61
			v0.54C32.52,16.4,30.27,16.4,30.27,16.4z M17.82,16.4v-3.2h0.65v1.26h1.27v-1.26h0.65v3.2h-0.65v-1.4h-1.27v1.4H17.82L17.82,16.4z
			 M22.47,13.14v0.55c-0.27,0-0.48,0.09-0.64,0.27c-0.16,0.18-0.24,0.46-0.24,0.83c0,0.36,0.08,0.64,0.25,0.82
			c0.17,0.19,0.38,0.28,0.64,0.28v0.55c-0.47,0-0.85-0.15-1.13-0.44c-0.28-0.29-0.42-0.69-0.42-1.2c0-0.33,0.05-0.6,0.15-0.82
			c0.07-0.16,0.17-0.31,0.3-0.44c0.13-0.13,0.26-0.22,0.41-0.29C21.98,13.18,22.21,13.14,22.47,13.14
			C22.47,13.14,22.47,13.14,22.47,13.14z"/>
		<g>
			<polygon class="st1" points="24.99,10 25.27,10.88 26.19,10.87 25.44,11.42 25.73,12.29 24.99,11.75 24.24,12.29 24.53,11.42 
				23.78,10.87 24.7,10.88 			"/>
			<g>
				<polygon class="st1" points="27.49,10.32 27.74,11.07 28.53,11.07 27.89,11.54 28.13,12.29 27.49,11.82 26.85,12.29 27.1,11.54 
					26.46,11.07 27.25,11.07 				"/>
				<polygon class="st1" points="29.71,10.58 29.92,11.24 30.61,11.23 30.05,11.64 30.26,12.29 29.71,11.89 29.15,12.29 
					29.37,11.64 28.81,11.23 29.5,11.24 				"/>
				<polygon class="st1" points="22.48,10.32 22.23,11.07 21.44,11.07 22.08,11.54 21.84,12.29 22.48,11.82 23.12,12.29 
					22.87,11.54 23.51,11.07 22.72,11.07 				"/>
				<polygon class="st1" points="20.26,10.58 20.05,11.24 19.36,11.23 19.92,11.64 19.71,12.29 20.26,11.89 20.82,12.29 20.6,11.64 
					21.16,11.23 20.47,11.24 				"/>
			</g>
		</g>
	</g>
</g>
</svg>
